<?xml version="1.0" encoding="UTF-8" standalone="no"?>
<!-- Created with Inkscape (http://www.inkscape.org/) -->

<svg
   width="251.35417mm"
   height="194.95615mm"
   viewBox="0 0 251.35417 194.95614"
   version="1.1"
   id="svg1"
   xml:space="preserve"
   xmlns:xlink="http://www.w3.org/1999/xlink"
   xmlns="http://www.w3.org/2000/svg"
   xmlns:svg="http://www.w3.org/2000/svg"><defs
     id="defs1"><linearGradient
       id="linearGradient2"><stop
         style="stop-color:#1c022b;stop-opacity:1;"
         offset="0"
         id="stop7" /><stop
         style="stop-color:#1e0031;stop-opacity:1;"
         offset="0.5"
         id="stop11" /><stop
         style="stop-color:#2a0d39;stop-opacity:1;"
         offset="1"
         id="stop9" /></linearGradient><linearGradient
       id="linearGradient52"><stop
         style="stop-color:#fab705;stop-opacity:1;"
         offset="0.01670147"
         id="stop52" /><stop
         style="stop-color:#ff857e;stop-opacity:1;"
         offset="0.07854906"
         id="stop57" /><stop
         style="stop-color:#fe6bd1;stop-opacity:1;"
         offset="0.13452505"
         id="stop59" /><stop
         style="stop-color:#fe58c6;stop-opacity:1;"
         offset="0.1821503"
         id="stop56" /><stop
         style="stop-color:#ff24a1;stop-opacity:1;"
         offset="0.30871606"
         id="stop58" /><stop
         style="stop-color:#ff0080;stop-opacity:1;"
         offset="0.5"
         id="stop54" /><stop
         style="stop-color:#a30082;stop-opacity:1;"
         offset="0.75"
         id="stop55" /><stop
         style="stop-color:#7f0289;stop-opacity:1;"
         offset="1"
         id="stop53" /></linearGradient><linearGradient
       id="linearGradient3"><stop
         style="stop-color:#f47e59;stop-opacity:0.0767857;"
         offset="0.12353765"
         id="stop8" /><stop
         style="stop-color:#ff7f5c;stop-opacity:1;"
         offset="0.21444988"
         id="stop22" /><stop
         style="stop-color:#ff6f79;stop-opacity:1;"
         offset="0.30377784"
         id="stop45" /><stop
         style="stop-color:#fe658e;stop-opacity:1;"
         offset="0.39171311"
         id="stop14" /><stop
         style="stop-color:#ff5998;stop-opacity:1;"
         offset="0.44488865"
         id="stop40" /><stop
         style="stop-color:#ff559c;stop-opacity:1;"
         offset="0.49806419"
         id="stop19" /><stop
         style="stop-color:#f54aa8;stop-opacity:1;"
         offset="0.54204506"
         id="stop39" /><stop
         style="stop-color:#db3dbf;stop-opacity:1;"
         offset="0.64393443"
         id="stop18" /><stop
         style="stop-color:#a341c2;stop-opacity:1;"
         offset="0.74066967"
         id="stop12" /><stop
         style="stop-color:#7246c2;stop-opacity:1;"
         offset="0.83537346"
         id="stop17" /><stop
         style="stop-color:#3449c1;stop-opacity:1;"
         offset="0.96091843"
         id="stop13" /><stop
         style="stop-color:#314ac0;stop-opacity:1;"
         offset="1"
         id="stop5" /></linearGradient><linearGradient
       id="linearGradient43"><stop
         style="stop-color:#325fcf;stop-opacity:1;"
         offset="0.00139278"
         id="stop41" /><stop
         style="stop-color:#6b5cce;stop-opacity:1;"
         offset="0.09568645"
         id="stop25" /><stop
         style="stop-color:#9958cf;stop-opacity:1;"
         offset="0.19671655"
         id="stop26" /><stop
         style="stop-color:#c453cf;stop-opacity:1;"
         offset="0.28005463"
         id="stop42" /><stop
         style="stop-color:#df51ce;stop-opacity:1;"
         offset="0.35615891"
         id="stop24" /><stop
         style="stop-color:#fb66b3;stop-opacity:1;"
         offset="0.4322632"
         id="stop1" /><stop
         style="stop-color:#fc67b2;stop-opacity:1;"
         offset="0.50836748"
         id="stop23" /><stop
         style="stop-color:#ff7a9f;stop-opacity:1;"
         offset="0.58447176"
         id="stop44" /><stop
         style="stop-color:#ff8486;stop-opacity:1;"
         offset="0.70399129"
         id="stop3" /><stop
         style="stop-color:#ff8a66;stop-opacity:1;"
         offset="0.81933248"
         id="stop2" /><stop
         style="stop-color:#f59450;stop-opacity:1;"
         offset="0.93334311"
         id="stop4" /><stop
         style="stop-color:#fe9b55;stop-opacity:1;"
         offset="1"
         id="stop43" /></linearGradient><linearGradient
       id="linearGradient35"><stop
         style="stop-color:#ffc463;stop-opacity:1;"
         offset="0.44632038"
         id="stop36" /><stop
         style="stop-color:#ffb648;stop-opacity:1;"
         offset="0.62016588"
         id="stop15" /><stop
         style="stop-color:#ff9a44;stop-opacity:1;"
         offset="0.75564671"
         id="stop6" /><stop
         style="stop-color:#ff8c68;stop-opacity:1;"
         offset="0.90397877"
         id="stop38" /><stop
         style="stop-color:#ff8c68;stop-opacity:0;"
         offset="1"
         id="stop37" /></linearGradient><linearGradient
       id="linearGradient27"><stop
         style="stop-color:#360358;stop-opacity:1;"
         offset="0.00182149"
         id="stop27" /><stop
         style="stop-color:#340056;stop-opacity:1;"
         offset="0.25136614"
         id="stop31" /><stop
         style="stop-color:#3b005a;stop-opacity:1;"
         offset="0.50091076"
         id="stop29" /><stop
         style="stop-color:#6d0077;stop-opacity:1;"
         offset="0.75045538"
         id="stop30" /><stop
         style="stop-color:#860085;stop-opacity:1;"
         offset="1"
         id="stop28" /></linearGradient><linearGradient
       xlink:href="#linearGradient27"
       id="linearGradient28"
       x1="113.97226"
       y1="113.91398"
       x2="113.97226"
       y2="216.49789"
       gradientUnits="userSpaceOnUse"
       gradientTransform="matrix(1.1665487,0,0,1.1665487,-274.91001,51.96385)" /><radialGradient
       xlink:href="#linearGradient35"
       id="radialGradient37"
       cx="114.37373"
       cy="229.9136"
       fx="114.37373"
       fy="229.9136"
       r="63.100548"
       gradientTransform="matrix(0.89499436,0,0,0.73099431,-237.17143,133.81076)"
       gradientUnits="userSpaceOnUse" /><linearGradient
       xlink:href="#linearGradient43"
       id="linearGradient40"
       x1="105.41112"
       y1="117.41247"
       x2="105.41112"
       y2="209.84552"
       gradientUnits="userSpaceOnUse"
       gradientTransform="matrix(1.1665487,0,0,1.1665487,-274.91001,51.96385)" /><radialGradient
       xlink:href="#linearGradient3"
       id="radialGradient14"
       cx="124.51202"
       cy="211.743"
       fx="124.51202"
       fy="211.743"
       r="61.152588"
       gradientTransform="matrix(5.1110791,0.17152826,-0.05617801,1.6739532,-756.24186,-84.810497)"
       gradientUnits="userSpaceOnUse" /><radialGradient
       xlink:href="#linearGradient52"
       id="radialGradient58"
       cx="73.021347"
       cy="121.91252"
       fx="73.021347"
       fy="121.91252"
       r="45.879887"
       gradientTransform="matrix(1.4383586,1.5953361,-2.5501079,2.2991834,278.88059,-266.85347)"
       gradientUnits="userSpaceOnUse" /><linearGradient
       xlink:href="#linearGradient2"
       id="linearGradient9"
       x1="112.24541"
       y1="112.0918"
       x2="112.24541"
       y2="220.68359"
       gradientUnits="userSpaceOnUse"
       gradientTransform="matrix(1.1665487,0,0,1.1665487,-274.91001,51.96385)" /></defs><g
     id="layer1-8"
     transform="translate(235.44786,-182.7244)"><g
       id="g11"
       transform="matrix(1.5389944,0,0,1.5389944,126.90507,-98.487417)"
       style="stroke-width:0.649775"><path
         style="baseline-shift:baseline;display:inline;overflow:visible;vector-effect:none;fill:url(#linearGradient9);stroke:none;stroke-width:2.76155;stroke-dasharray:none;paint-order:stroke fill markers;enable-background:accumulate;stop-color:#000000"
         d="m -235.44785,182.72439 61.2233,126.67762 53.94375,-111.61501 v 108.76243 h 48.156593 V 182.72439 h -90.498653 l -11.60169,25.34053 -11.6017,-25.34053 z m 6.776,4.25153 h 40.11606 l 14.33124,31.2963 14.33123,-31.2963 h 83.517592 v 115.32199 h -39.653532 v -113.36712 -0.42605 l -4.03964,-0.92504 -54.15565,112.05475 z"
         id="path9" /><path
         style="baseline-shift:baseline;display:inline;overflow:visible;vector-effect:none;fill:url(#linearGradient28);stroke:none;stroke-width:2.76155;stroke-dasharray:none;paint-order:stroke fill markers;enable-background:accumulate;stop-color:#000000"
         d="m -232.05959,184.85006 57.83497,119.66913 56.06929,-116.01417 v 0.42559 115.49334 h 43.905368 V 184.85006 h -87.008368 l -12.96629,28.31857 -12.96628,-28.31857 z"
         id="path10" /><path
         id="path26"
         style="color:#000000;fill:#ffffff;fill-opacity:1;stroke:none;stroke-width:2.76155;stroke-dasharray:none;paint-order:stroke fill markers"
         d="m -228.43477,187.12393 54.21015,112.16872 54.21016,-112.16872 h -39.78321 l -14.42695,31.51057 -14.42694,-31.51057 z m 112.55332,0 v 115.02613 h 39.357617 V 187.12393 Z" /><path
         style="color:#000000;fill:#fd946c;fill-opacity:1;stroke:none;stroke-width:2.76155;stroke-dasharray:none;paint-order:stroke fill markers"
         d="m -225.55267,188.93121 51.32742,106.20553 51.32804,-106.20553 h -35.73944 l -15.5886,34.04608 -15.588,-34.04608 z m 111.48029,0 v 111.41097 h 35.739428 V 188.93121 Z"
         id="path14" /><path
         style="color:#000000;fill:url(#linearGradient40);fill-opacity:1;stroke:none;stroke-width:2.76155;stroke-dasharray:none;paint-order:stroke fill markers"
         d="m -225.55267,188.93121 51.32742,106.20553 51.32804,-106.20553 h -35.73944 l -15.5886,34.04608 -15.588,-34.04608 z m 111.48029,0 v 111.41097 h 35.739428 V 188.93121 Z"
         id="path40" /><path
         style="color:#000000;fill:url(#radialGradient37);fill-opacity:1;stroke:none;stroke-width:2.76155;stroke-dasharray:none;paint-order:stroke fill markers"
         d="m -225.55267,188.93121 51.32742,106.20553 51.32804,-106.20553 h -35.73944 l -15.5886,34.04608 -15.588,-34.04608 z m 111.48029,0 v 111.41097 h 35.739428 V 188.93121 Z"
         id="path23" /><path
         id="path2"
         style="fill:url(#radialGradient14);fill-opacity:1;fill-rule:nonzero;stroke:none;stroke-width:2.76155;stroke-dasharray:none"
         d="m -198.51689,189.98195 -0.61669,0.0241 c 0,0 1.0323,0.39973 2.00501,1.63909 0.57476,0.73234 1.1279,2.53552 1.1279,2.53552 0,0 -0.84553,-1.08976 -1.30633,-1.62463 -0.78485,-0.91104 -2.1471,-1.80202 -4.16436,-2.44389 -0.78609,-0.25012 -2.23333,-0.10592 -2.93639,0.0845 0,0 1.15397,-0.0237 2.19431,0.90123 1.20422,1.07059 1.59207,1.47091 1.59207,1.47091 0,0 -3.02722,-1.2039 -4.7274,-1.6825 -0.94266,-0.26535 -1.62325,-0.30624 -3.18415,-0.30624 -2.78897,0 -3.24383,0.34904 -3.24383,0.34904 1.63416,0.62161 3.05296,0.83621 4.99204,1.53361 0.96971,0.34875 1.26112,0.88615 1.26112,0.88615 -2.67032,-0.79285 -4.53998,-1.27319 -6.63596,-1.27016 -3.53515,0.005 -6.11029,1.41002 -6.11029,1.41002 l 1.10921,0.67095 c 0,0 0.48494,-0.0337 2.43061,-0.0337 1.23405,0 2.08338,0.4901 2.08338,0.4901 0,0 -2.08302,0.0836 -4.87027,1.33949 -1.48664,0.66979 -3.49099,2.37937 -3.49099,2.37937 l 1.03566,2.14307 c 0,0 0.25298,-0.37933 1.48116,-0.95911 1.25115,-0.59064 2.8271,-1.14141 4.10588,-1.63548 0,0 -1.02962,1.10788 -1.87179,1.56797 -1.09105,0.59605 -2.54949,1.20576 -3.40479,1.66863 l 0.6601,1.36661 c 0,0 2.67619,-0.71571 3.99556,-1.27377 0.75087,-0.3176 1.45279,-0.73767 2.17863,-1.17613 0.6493,-0.39222 2.0436,-1.4697 2.0436,-1.4697 0,0 -0.37811,0.58336 -1.60232,1.65477 -0.38591,0.33774 -0.79397,0.68881 -1.35999,1.13091 -1.92788,1.5058 -3.01596,2.65909 -3.01596,2.65909 l 0.38581,0.25861 c 0,0 2.62848,-1.03598 4.32049,-2.01828 1.18303,-0.68681 3.48436,-2.29196 3.48436,-2.29196 0,0 -0.80578,0.97337 -1.24605,1.39254 -0.31472,0.29964 -0.69824,0.61918 -0.96634,0.87169 -1.28086,1.20634 -1.6819,1.44681 -1.6819,1.44681 0.41025,0.0336 0.76478,0.15915 1.62584,-0.22788 1.21095,-0.5443 1.60018,-0.78048 3.02319,-1.93146 0,0 1.37563,-1.29654 2.83994,-1.95379 0.63565,-0.28531 1.96764,-0.58112 1.96764,-0.58112 0,0 -1.24798,1.21545 -2.59036,2.30583 -0.89648,0.72819 -1.74442,1.12309 -2.59399,2.09001 -0.52321,0.56472 -0.96608,1.04073 -1.2792,1.66743 -0.44791,-0.0817 -0.89639,-0.16214 -1.36119,-0.23269 -2.54957,-0.38701 -7.12305,-0.15855 -7.12305,-0.15855 l 3.59227,7.4317 c 0.63001,-0.29071 1.23099,-0.59958 1.86516,-0.93078 -0.57565,0.41966 -1.22818,0.70176 -1.76268,1.14358 l 0.99889,2.0665 c 0.11802,-0.0748 0.19033,-0.13672 0.27549,-0.20255 -0.0925,0.11222 -0.17792,0.21867 -0.22907,0.29901 l 1.00914,2.0882 c 0.92863,-0.63146 1.72632,-1.20704 2.5789,-1.86938 -0.74526,0.80757 -1.57,1.65589 -2.27508,2.49753 l 0.77102,1.59509 0.99106,-0.75957 c -0.2796,0.33367 -0.54967,0.72327 -0.81985,1.11344 l 0.85602,1.77172 c 0.99798,-0.9814 1.46537,-1.54435 2.09363,-2.35045 l -1.60112,3.36982 0.52145,1.06461 c 1.81623,-1.8326 3.70003,-3.53714 5.71061,-5.68952 0,0 -1.42285,2.31966 -2.1943,3.98833 -1.20893,2.61493 -1.39383,3.42503 -1.90073,5.05896 l 0.0742,0.15251 c 3.70411,-3.44633 7.30985,-7.02572 11.0734,-10.44525 -2.76249,3.61225 -5.66386,7.40429 -8.38538,11.02337 1.23366,-0.74935 1.56335,-0.90412 3.28362,-2.468 1.69513,-1.53975 3.24147,-3.23653 4.73885,-4.96732 -0.77285,1.5782 -1.91313,3.05239 -3.08227,4.52908 -1.03712,1.3099 -2.18321,2.64682 -3.25348,3.84605 2.40789,-1.00396 4.5217,-2.97231 7.87297,-6.30802 -8.5e-4,-0.001 -2.70186,3.18171 -4.08538,4.73342 -1.06304,1.19226 -1.24123,2.7242 -1.24123,2.7242 0,0 0.7274,-0.49962 1.77413,-1.20445 3.81714,-2.57034 5.63618,-5.1193 6.15128,-5.88785 0,0 -1.32461,2.21981 -1.85008,3.13351 -1.04486,1.81682 -1.70079,3.24715 -2.03878,4.02992 -3.29992,0.48515 -6.21155,1.07994 -8.67835,1.97849 l 0.24475,0.50638 c 1.15793,-0.10814 2.19127,-0.19525 3.18777,-0.24474 -0.99755,0.16821 -1.82125,0.20453 -3.04791,0.5341 l 5.6226,11.63343 c 0.65634,-1.30607 1.26067,-2.74435 1.74339,-4.0649 -0.38938,1.58404 -0.84313,3.16809 -1.41123,4.75213 l 1.05073,2.175 2.30161,-4.19268 c -0.5018,1.66965 -1.04435,3.78867 -1.55108,5.74497 l 0.80538,1.66743 c 2.1057,-3.74883 3.10976,-6.84514 4.27708,-11.81668 0.042,3.25384 -0.65292,7.21192 -1.13211,9.74295 l 1.17733,-0.50879 c 1.29517,-2.76884 1.68737,-5.28137 2.1943,-8.63736 -0.25292,3.33713 -0.54045,5.9736 -1.01758,9.36256 0.001,0.002 1.6799,-1.52885 2.03697,-2.83571 0.43292,-1.58451 0.67016,-4.22224 0.70772,-4.83109 0.12222,-1.98085 0.17432,-3.72944 0.0814,-5.75281 0,0 0.78453,2.21671 1.23701,5.75281 0.1917,1.49813 0.28132,2.69696 0.33216,3.4711 -0.16999,0.38504 -0.38139,0.84658 -0.50879,1.15201 -1.55335,3.72415 -2.99486,7.9628 -2.99486,7.9628 -0.19581,-0.009 -0.24355,0.044 -0.28575,0.14226 -0.7347,1.71256 -1.44401,3.31097 -2.12919,5.02158 l 3.93347,8.13942 c 0.44267,-2.60587 0.67615,-4.17474 2.12317,-8.4969 0.97712,-2.91862 2.02076,-5.77368 3.09433,-8.63073 0.86792,-2.30976 1.74062,-4.61333 2.71816,-6.87889 0.63976,-1.48272 2.00378,-4.34176 2.03275,-4.40248 -0.55237,1.68252 -1.29808,4.53598 -1.24726,5.46044 1.64171,-2.04562 3.32055,-3.94692 5.11502,-5.88363 -1.77827,2.40768 -3.65491,4.93657 -5.0686,7.54925 -0.51497,0.95173 -0.66498,1.09374 -0.71195,1.77715 l 2.46016,-2.76097 c 0,0 -1.32124,2.41993 -1.71506,4.28673 -0.2238,1.06087 -0.40774,1.61453 -0.214,2.46618 0,0 1.0138,-1.51765 1.92906,-2.68561 0.35295,-0.4504 1.11403,-1.30633 1.11403,-1.30633 0,0 -0.92039,2.35916 -1.27921,3.67425 -0.73059,2.67766 -1.39736,6.36289 -1.39736,6.36289 0,0 1.91907,-3.57428 3.39936,-5.83481 1.31221,-2.00385 2.53611,-3.47893 2.53611,-3.47893 0,0 -1.22186,2.5216 -2.05083,4.01906 -1.3015,2.35108 -3.13481,5.45196 -3.1522,8.06106 0.47002,-0.65273 1.32705,-1.59433 2.03817,-2.28714 0,0 -0.58232,1.54219 -0.85421,2.32331 -0.55529,1.5953 -1.56857,4.82446 -1.56857,4.82446 2.52996,-3.31735 4.25109,-5.77212 6.35685,-8.84775 0,0 -1.59516,2.91364 -2.4505,4.33676 -1.1714,1.94895 -3.49582,6.03614 -3.49582,6.03614 l -0.11936,0.81202 c 0,0 1.02184,-1.15276 1.68853,-2.07917 0.20385,-0.28326 0.65106,-0.85662 0.65106,-0.85662 l -1.9592,4.08358 0.0639,1.4468 3.51571,-4.0655 c 0,0 -0.68069,2.15635 -1.06822,3.20465 -1.30821,3.53889 -2.10569,5.32059 -2.10569,5.32059 0,0 1.45754,-1.77693 2.6609,-3.43434 1.48976,-2.05188 2.95628,-4.56884 2.95628,-4.56884 0,0 -1.34623,3.68755 -2.19129,5.66299 -0.68395,1.59883 -2.17441,4.69303 -2.17441,4.69303 0.5638,-0.52494 1.11621,-1.03202 1.64754,-1.50285 0,0 -0.45481,1.56087 -0.8301,2.52706 -0.53681,1.38206 -0.7445,1.64815 -0.7445,1.64815 l 0.32553,1.04048 c 1.05384,-1.72804 1.95442,-3.11355 2.73263,-4.82205 0,0 -0.31862,1.87161 -0.74148,3.44278 -1.21673,4.52083 -1.57203,5.14807 -1.9586,5.93004 l 0.29178,0.30262 c 2.53606,-3.49061 3.17697,-4.70063 4.41754,-7.50524 -0.22235,2.00131 -0.61454,4.11451 -1.23882,6.05723 l 0.36713,0.0217 c 0,0 1.26977,-1.84372 3.20525,-5.82817 1.62249,-3.34014 1.84586,-6.55578 1.84586,-6.55578 0,0 0.043,1.91127 -0.0331,3.00932 -0.094,1.35462 -0.44971,3.29569 -0.44971,3.29569 l 0.48287,-0.4666 c 0,0 1.36219,-2.97909 2.11533,-5.99092 0.35589,-1.42323 0.63659,-3.38731 0.63659,-3.38731 0.14699,0.48359 0.29745,0.98747 0.48648,1.703 0,0 0.457,-2.24516 0.54315,-3.58926 0.17706,-2.76247 8e-5,-3.57971 -0.10368,-4.38258 0.5005,1.05796 1.02576,2.35359 1.32442,3.68993 l 0.39968,-0.93379 c -0.0737,-4.44582 -0.51183,-6.0475 -1.08932,-8.42336 1.0895,1.42179 1.91114,2.63569 2.39866,5.42005 l 0.48528,-1.18094 c 0,0 -0.16756,-4.11372 -1.04832,-7.28762 -0.9599,-3.45913 -2.4704,-5.01736 -2.4704,-5.01736 1.20844,0.6182 2.05135,1.54694 2.96954,2.52706 0,0 0.0217,-0.84566 -0.17421,-1.50466 -0.66532,-2.23768 -2.54182,-5.39924 -2.65487,-5.40498 0.82767,0.42019 1.559,0.91554 2.33416,1.75484 0,0 -0.82248,-1.74065 -1.95016,-3.36921 -2.08103,-3.00541 -3.664,-4.56826 -3.664,-4.56826 0.88579,0.24072 1.61185,0.6336 2.45593,1.17191 -0.599,-0.844 -1.40799,-1.9746 -2.43544,-3.22275 -0.95007,-1.15416 -2.54318,-2.91473 -3.76226,-4.23247 0.0401,-0.84159 0.0755,-1.6849 0.16095,-2.50838 -0.0196,-0.0221 0.83094,2.09288 1.11403,2.68261 0.8682,1.80854 1.47069,2.69985 2.18828,3.6435 -0.29588,-1.59 -0.61493,-3.43632 -0.69567,-4.83712 0,0 0.99868,2.21913 1.44559,2.96955 0.56399,0.94701 0.75452,1.24641 1.35456,1.8332 0.48939,0.47859 0.74128,0.5521 1.28102,0.7632 -0.29501,-1.77668 -0.58174,-3.51609 -1.00492,-5.32481 0,0 1.28391,2.60607 2.12377,4.67254 0.51249,1.26097 1.09592,2.68662 1.46006,4.04559 0.0824,0.30745 0.92848,1.23937 1.62221,2.22867 -0.22073,-1.96944 -0.44055,-3.90152 -0.77463,-5.9843 -0.003,0 1.53509,3.07791 2.23349,4.82505 0.35028,0.87628 0.56027,1.36764 1.09292,2.26243 0.4033,0.67748 0.65468,1.19541 0.65468,1.19541 0,0 -0.18525,-4.26987 -0.83191,-7.58722 -0.44743,-2.29531 -1.03747,-3.81472 -1.03747,-3.81472 0,0 0.93141,1.84437 1.35517,2.76218 0.76627,1.65961 1.47012,3.34944 2.09966,5.06558 1.46798,4.00178 2.11351,6.8343 2.11351,6.8343 l 0.86507,0.45393 c 0,0 0.0636,-3.79211 -0.49794,-7.27256 -0.43509,-2.69711 -1.13513,-4.5598 -1.13513,-4.5598 1.51367,2.68971 2.80875,5.55019 4.14627,8.63313 l 1.38772,-2.87188 c -0.0217,-0.30094 -0.0299,-0.4814 -0.0301,-0.64081 0.056,0.11363 0.11,0.1999 0.18929,0.31166 l 1.3841,-2.86345 c -0.22575,-1.04086 -0.58619,-2.10245 -0.97357,-3.0901 0.45601,0.78846 0.85931,1.64004 1.26233,2.4921 l 4.61406,-9.54704 c 0,0 -0.26448,-0.17454 -0.68783,-0.4274 -0.72962,-1.5668 -1.51271,-3.5351 -2.13462,-4.61225 -0.13999,-0.24247 -0.44485,-0.61044 -0.77765,-1.03808 -0.85696,-1.10114 -1.98447,-2.53233 -2.66572,-3.31377 1.28551,1.17931 1.89211,1.92236 2.99064,3.08108 0.28021,0.29556 0.55928,0.61474 0.9151,0.97056 0.48056,0.48056 0.59367,0.48163 1.06641,1.03264 0.6859,0.79943 1.42304,1.52658 2.25338,2.47281 l 0.73545,-1.67346 c -0.2412,-0.39659 -0.50061,-0.81203 -0.73545,-1.1303 0.33156,0.23997 0.6711,0.46656 0.96091,0.70652 l 0.47805,-1.03205 c -0.69341,-1.03849 -1.38811,-2.07692 -2.13463,-3.11543 0.83915,0.82675 1.71335,1.70039 2.43484,2.55419 l 1.03867,-2.20876 c 0,0 -0.56841,-0.61918 -0.81261,-0.94163 -0.52622,-0.6948 -1.3835,-1.52999 -1.3835,-1.52999 0.90611,0.54136 1.58016,1.00678 2.50717,1.82718 l 2.12378,-4.39342 c 0,0 -2.89499,-1.57671 -5.1518,-2.11956 -2.51901,-0.60593 -4.59089,-0.78851 -6.83911,-0.62875 -2.1727,0.15438 -3.23688,0.49576 -4.47963,1.02843 -0.91424,0.39186 -1.92127,0.83708 -2.58253,1.03808 -0.66584,0.20237 -1.34172,0.37651 -2.01948,0.55219 l -1.31599,-0.99166 c 1.42806,-0.0472 2.69568,-0.0392 3.85029,0 0,0 -1.19346,-0.66495 -3.56032,-1.41002 -1.80146,-0.56709 -3.43312,-0.84577 -3.43312,-0.84577 1.62516,-0.0885 2.65838,-0.0502 4.6213,0.34723 l 2.18224,-0.43525 c -0.36861,-0.24618 -1.05581,-0.54925 -1.58604,-0.79814 0.65134,0.19146 1.01605,0.21299 2.05505,0.38279 l 1.57941,-0.45151 c -1.64502,-0.81553 -3.39246,-1.64065 -5.35072,-2.51863 0,0 1.48793,0.20144 2.29678,0.33638 1.73488,0.2894 3.18355,0.83311 3.18355,0.83311 0.61974,-0.0733 1.29975,-0.13132 1.79403,-0.22546 -1.6892,-0.96133 -3.30099,-1.86159 -5.5581,-2.9189 1.95749,0.42008 3.80956,0.86814 5.5581,1.3015 l 2.216,-0.43343 c -1.71781,-0.73734 -3.36882,-1.54167 -5.05413,-2.4903 2.10699,0.68666 3.95116,1.18473 6.08557,1.94474 0.7603,-0.11798 1.46292,-0.23903 2.09364,-0.38943 0,0 -2.28031,-1.12076 -3.41806,-1.62282 -1.83991,-0.8119 -4.47481,-1.82477 -4.47481,-1.82477 0,0 2.60846,0.34979 3.84304,0.6806 2.4515,0.65687 4.80336,1.89831 4.80336,1.89831 -0.75601,-0.64852 -1.62615,-1.35113 -2.35284,-1.81754 -1.24631,-0.79991 -2.26562,-1.23719 -3.02441,-1.60956 2.43842,0.64028 3.93978,1.14269 5.92764,2.49031 -0.18273,-0.23639 -0.48881,-0.64507 -0.81924,-1.10982 -0.34902,-0.49091 -0.48068,-0.74195 -0.82046,-1.149 1.02415,0.22096 1.81324,0.58894 2.77423,1.24063 0.35962,-0.0755 0.73519,-0.14274 1.13814,-0.19652 0,0 -0.54538,-0.58338 -1.37506,-1.3431 -1.17847,-1.07915 -2.61869,-1.80006 -2.61869,-1.80006 2.40027,-0.0839 4.72833,-0.20314 6.93557,-0.3177 0,0 -2.03624,-1.22504 -3.70259,-1.4709 -0.95771,-0.14138 -1.35938,-0.0959 -1.35938,-0.0959 0.588,-0.56967 1.07756,-1.1005 1.76629,-1.6198 -2.813,0.0259 -3.86976,0.36928 -4.70992,0.66974 -1.55819,0.55723 -1.89209,0.71136 -3.01415,1.40279 0,0 2.01036,-1.49135 3.09132,-2.27387 1.32976,-0.96266 2.71394,-1.36722 2.71394,-1.36722 -1.01126,-0.18366 -1.60912,-0.24432 -2.94,0 -0.627,0.17924 -0.90534,0.27235 -1.89712,0.72942 -0.3773,0.17388 -1.19348,0.6814 -1.72891,0.91388 -0.29603,0.12852 -0.7028,0.27919 -1.19482,0.4473 -0.71321,0.24368 -1.25267,0.4654 -1.25267,0.4654 1.33684,-1.19702 2.36874,-2.10664 4.38498,-3.48136 0,0 -1.53766,0.11468 -3.69896,0.88255 -1.23884,0.44016 -2.19129,1.08449 -2.19129,1.08449 0.58878,-1.00508 1.2929,-1.8818 1.46306,-2.84596 -2.28192,1.91498 -3.24347,3.08741 -4.39161,4.75392 -1.30939,1.90056 -2.42091,3.93793 -3.28483,6.07774 -0.14445,-0.71998 -0.23087,-1.36596 0.041,-2.61206 0.37229,-1.70647 1.80848,-4.5351 1.80848,-4.5351 l -1.11885,0.59981 c -0.65806,0.86953 -1.24714,1.80521 -1.74579,2.79172 -1.1179,2.21156 -1.50311,3.28597 -2.08821,4.89499 0,0 -0.0425,-1.3011 0.22425,-2.67115 0.25558,-1.31253 0.61248,-2.45352 0.61248,-2.45352 l -0.68964,0.50456 c -0.83594,1.40464 -1.61829,2.81556 -2.52767,4.1722 l -1.31537,2.87309 c -0.85727,2.40118 -0.96131,4.75033 -0.73064,7.1761 -0.3423,-0.82748 -0.75703,-1.76945 -1.31296,-2.68983 l -0.75535,1.62704 c 0.12521,1.09039 0.25394,2.10174 0.33096,3.43312 -0.35934,-0.55378 -0.77829,-1.50745 -0.90968,-2.17019 l -4.02329,8.78746 -2.10267,-4.54294 -6.99465,-15.27632 c -2.17292,-2.79412 -3.96743,-5.18502 -6.7511,-7.76628 0.0293,0.40988 0.0563,0.93467 0.0518,1.28403 -0.96721,-1.4092 -1.39029,-2.25845 -1.85732,-2.77061 -0.41547,-0.45562 -1.14461,-1.01334 -2.02491,-1.60232 -2.7763,-1.85751 -4.61286,-2.3209 -4.61286,-2.3209 z m 93.74682,0.52868 c -0.50695,0.9488 -1.14411,1.91012 -1.14779,3.58926 -0.002,1.08889 0.2362,2.18276 0.58594,3.2806 0.2732,0.85757 0.66975,1.88686 0.66975,1.88686 0,0 -1.0083,-1.39477 -1.38952,-2.05505 -0.51523,-0.89241 -1.07846,-2.00381 -1.07846,-2.00381 l -0.28695,0.27308 c 0.0856,0.76092 0.20853,1.54966 0.79935,3.24504 0.54014,1.54994 1.22488,3.06611 2.10991,4.57549 0,0 -1.00409,-0.89186 -1.97548,-1.98994 -1.39781,-1.58014 -1.98874,-2.58555 -1.98874,-2.58555 0,0 0.16047,1.23477 0.4027,2.03215 0.39503,1.30042 0.81985,1.95558 0.81985,1.95558 -0.38563,-0.31583 -0.81943,-0.68297 -1.3413,-1.12247 0,0 0.92553,1.56189 1.54084,2.26182 0.92171,1.04845 2.43241,2.17863 2.43241,2.17863 -1.43398,-0.51664 -2.63153,-1.12293 -3.57659,-1.72108 l 0.24415,0.91569 c 0,0 1.21491,1.48903 2.61808,2.5331 1.07873,0.80265 2.60063,1.55591 2.60063,1.55591 0,0 -1.52676,-0.41696 -2.28896,-0.70772 -1.52156,-0.58044 -1.98995,-0.95428 -1.98995,-0.95428 v 0.61247 c 0.99907,1.34951 1.93706,2.33436 3.56877,3.54827 -0.86693,-0.25502 -1.815,-0.57926 -2.49874,-0.96032 0,0 0.50668,1.47633 1.49321,2.33175 0.97937,0.8492 3.38972,1.98332 3.38972,1.98332 0,0 -1.47118,0.0596 -2.23168,0 -0.62669,-0.0491 -1.45497,-0.24479 -1.65296,-0.29238 -0.32254,-0.39861 -0.63436,-0.7971 -0.92776,-1.19723 -1.21827,-1.66139 -2.5526,-3.48957 -2.89237,-5.39533 -0.0455,1.13915 0.0404,2.82612 0.33938,4.47542 -0.55207,-0.97659 -0.96094,-2.04985 -1.71927,-3.2788 -0.6259,-1.01435 -1.15704,-1.52962 -1.5565,-1.97186 -0.68382,-0.75704 -1.48021,-1.73534 -1.9803,-2.31909 0.23042,1.02973 0.2415,1.8612 0.95307,3.19019 -0.45129,-0.3515 -0.85241,-0.66018 -1.34672,-1.12127 v 5.8336 c 0.15378,0.10405 0.30695,0.1969 0.47985,0.25016 -0.18234,0.0375 -0.33927,0.0807 -0.47985,0.12781 v 1.89108 c 1.34679,0.0462 2.23752,0.27055 3.13954,0.74148 -1.04642,0.0999 -2.09313,0.34783 -3.13954,0.59017 v 1.39978 c 0.85645,-0.0324 1.76771,0.0331 2.70791,0.10184 -0.33367,0.20752 -0.36133,0.24051 -1.16407,0.44368 -0.87825,0.2223 -1.02481,0.65889 -1.02481,0.65889 1.9685,0.9877 3.98846,1.96986 5.792,2.93398 -2.20659,-0.42814 -3.93679,-0.57454 -6.31103,-0.65286 v 5.13311 c 0.36255,-0.42458 0.62387,-0.73978 0.94583,-1.03808 -0.35975,0.51741 -0.67812,1.00646 -0.94583,1.53239 v 2.2359 c 1.29595,-1.35114 2.62519,-2.68768 4.07392,-3.98471 -1.23888,1.85885 -2.32818,4.05729 -3.16004,6.02952 -0.58318,0.17096 -0.91388,0.28634 -0.91388,0.28634 v 15.8436 c 0.79285,-1.69988 1.41553,-3.36347 1.83743,-5.09996 0.0128,2.7343 -0.49366,5.33366 -0.97056,7.48957 l 0.8512,-0.0639 c 1.96326,-3.71713 2.98629,-7.85953 3.90031,-11.82513 0,0 0.0926,3.55763 -0.0976,6.07532 -0.26373,3.48963 -0.82709,6.11572 -0.82709,6.11572 2.10043,-3.15031 2.5686,-6.11595 3.21369,-9.46686 -0.0594,2.55839 -0.1445,5.10877 -0.42138,7.65415 l 0.5311,-0.55822 c 1.10537,-3.29179 1.6827,-6.49494 2.21238,-10.01664 0,0 -0.006,2.47583 -0.10371,3.7267 -0.13617,1.73381 -0.6806,5.17289 -0.6806,5.17289 l 0.8506,-0.61971 c 0,0 1.03479,-2.49513 1.91459,-5.48697 0.70938,-2.41229 1.12006,-4.57186 1.12006,-4.57186 0.18435,1.37127 0.30489,2.69147 0.43042,4.08237 -0.4207,0.89347 -0.82718,1.77309 -1.17492,2.54936 -1.96625,4.38957 -3.74223,8.70232 -5.25125,13.4799 -0.59779,1.89262 -1.23656,4.01102 -1.37988,5.97527 -0.0161,0.22046 0.10791,0.46779 0.10791,0.46779 l 0.18687,0.0934 c 0,0 0.41225,-0.27552 1.97789,-3.35354 0.51298,-1.00851 1.36713,-2.33085 1.7886,-2.85983 l 0.16456,0.0976 c -1.17533,2.97578 -4.09429,10.33292 -4.72377,15.39389 -0.1223,0.9833 0.0181,2.67898 0.0181,2.67898 0,0 0.65676,-1.48596 1.02542,-2.20937 0.42413,-0.83231 0.93981,-1.64151 0.93981,-1.64151 0,0 -0.41589,3.17986 -0.52446,5.48696 -0.15766,3.3501 -0.0428,7.22372 -0.0428,7.22372 0,0 1.20162,-2.74401 1.84285,-4.31205 0.15827,-0.38701 0.57088,-1.23038 0.57088,-1.23038 -0.33675,2.16586 -0.7939,5.93105 -0.73846,8.05081 0.05,1.91314 0.45332,3.65315 0.45332,3.65315 0.32214,-0.8423 0.62314,-1.79435 0.82527,-2.6 0.16094,0.83739 0.39318,1.77082 0.68964,2.71936 l 0.26465,-0.20496 c 0.25101,0.57475 0.63431,1.20472 1.12729,1.68793 0.13906,-0.3541 0.18078,-0.65762 0.19231,-0.92475 0.19208,1.1886 0.41846,2.17887 0.84215,3.33246 0.33446,-0.34845 0.70078,-0.82233 0.92473,-1.15322 0.45784,1.20852 1.018133,2.4019 1.739784,3.66642 -0.117402,-2.25729 7e-5,-2.94035 0.430421,-3.51993 1.212838,1.31558 2.393082,2.62459 3.840629,3.98712 -0.767531,-1.78035 -1.431251,-3.64677 -1.930265,-5.60934 l 1.971257,0.83432 c -0.933869,-1.33599 -1.609417,-2.8209 -2.279903,-4.30301 1.115804,0.68664 2.219347,1.37381 3.762866,2.06048 -0.758676,-1.01296 -1.579612,-2.03856 -2.187675,-3.0214 0.976483,0.60858 1.917048,1.31677 2.816433,1.95619 -0.697397,-2.33101 -2.017196,-4.42967 -3.243833,-6.39965 1.422991,1.53529 2.615449,2.72672 3.659183,4.55318 -0.698902,-2.93673 -2.282842,-6.09422 -4.290951,-9.20161 2.206889,1.73955 4.083375,2.81556 5.523736,5.31034 -0.258378,-1.89031 -0.833487,-3.59845 -1.578807,-5.22836 -0.911366,-1.99287 -1.962356,-3.69337 -2.953269,-5.54423 -0.954832,-1.78346 -1.861544,-3.69294 -1.861544,-3.69294 2.437201,2.77497 4.624351,5.66957 6.805354,8.72838 -0.602593,-2.71291 -2.802773,-7.53893 -3.402379,-8.82905 1.278852,1.70341 2.602476,3.49008 3.90032,5.70399 -1.376726,-4.85484 -3.335874,-9.7834 -5.597287,-14.36486 2.417054,2.83852 4.542867,6.17704 6.027102,9.40838 -0.7912,-5.86718 -2.350362,-10.45027 -3.912371,-14.79648 1.76703,3.32422 3.268098,6.83742 4.6635,10.47841 -0.557575,-5.19117 -1.760894,-9.54724 -3.269754,-14.72535 1.413052,2.74936 2.781343,5.19597 3.764079,8.89295 0,0 -0.465453,-4.49373 -0.53954,-6.90662 1.109586,3.3684 1.842668,5.88868 2.901428,9.8412 1.169967,4.36774 2.504207,8.69135 3.61216,13.08083 1.061746,4.20641 2.29116,8.52006 3.501244,12.62087 v -18.57141 c -0.189063,-0.35409 -0.421229,-0.75794 -0.603432,-1.16587 -0.502865,-1.57678 -0.910877,-3.29982 -1.689735,-4.94985 0.05308,0.0349 0.154592,0.0803 0.256198,0.10429 l 0.125999,-0.4051 c 0,0 -0.951962,-1.45955 -1.233999,-2.17501 -1.018023,-3.58907 -2.611774,-8.89339 -3.830992,-12.83849 -0.0093,-0.30024 -0.01633,-0.49895 -0.02473,-0.75173 -0.07338,-2.21554 -0.03896,-7.04668 0,-7.0272 0.226532,2.14374 0.788948,4.8578 1.211694,7.37021 0.298811,1.77586 0.657933,4.6113 0.708328,6.16454 l 0.232085,0.76921 c 0.04235,-0.12714 0.281687,-3.35967 0.286353,-6.30499 0.0035,-1.99206 0.02601,-3.91351 0,-6.00722 0.697713,3.69593 1.526721,10.56153 1.397957,15.44934 l 0.427412,0.47022 c 0.632689,-3.75172 1.134398,-7.45302 1.062189,-11.52974 0.668771,2.80822 1.069667,5.90289 1.476932,8.80976 0.112339,-3.32104 0.176499,-6.90984 0.19773,-10.38013 v -12.19045 c -0.251286,-0.97963 -1.276834,-2.40252 -1.940519,-3.56153 0.658529,0.87555 1.273452,1.73886 1.940519,2.70431 v -8.13038 c 0,0 -1.025011,0.27902 -2.405295,0.72641 -0.982782,-0.80447 -2.040678,-1.65956 -3.21068,-2.37818 1.54703,0.56474 3.340132,0.91062 5.090305,1.1267 l 0.52567,-0.27429 v -1.59328 c -1.417321,-0.4376 -2.511066,-0.82195 -3.334859,-1.46488 1.108221,0.17888 2.219195,0.38051 3.334859,0.50638 v -11.7769 c 0,0 -3.014105,2.74834 -5.168674,5.39775 -0.46018,0.0869 -1.322329,0.25298 -1.90796,0.39786 -1.133174,0.28035 -3.363195,0.97659 -3.363195,0.97659 0,0 2.11171,-1.30613 3.216711,-1.89169 0.999604,-0.52971 3.070217,-1.49381 3.070217,-1.49381 l -0.221843,-0.43524 c 0,0 -1.30132,0.1982 -1.898313,0.33337 -1.71702,0.38873 -3.263723,0.94825 -3.263723,0.94825 0,0 2.195701,-1.14886 3.997972,-1.88626 1.47159,-0.60209 3.979891,-1.38953 3.979891,-1.38953 l -0.140464,-0.37435 c -1.110018,0.0186 -2.480864,0.14107 -5.558103,0.69988 -1.147184,0.20832 -3.340891,0.79393 -3.340891,0.79393 0,0 2.515698,-1.14666 5.224739,-2.00019 2.407441,-0.75851 5.373636,-1.3431 5.373636,-1.3431 v -0.67096 c 0,0 -0.831201,-0.0615 -1.845865,-0.0615 -1.662238,0 -3.407803,0.0615 -3.407803,0.0615 1.644612,-0.5337 3.438378,-1.01585 5.253668,-1.35516 v -0.79333 c 0,0 -0.845409,-0.094 -1.845865,-0.12418 -1.128134,-0.0339 -3.10036,-0.0609 -3.10036,-0.0609 1.611377,-0.5941 3.31812,-1.19646 4.946225,-1.77835 v -0.20376 c -1.106821,0.0973 -2.109306,0.23021 -3.261915,0.42138 0.954972,-0.31863 2.134866,-0.63445 3.261915,-0.93981 v -0.9157 c 0,0 -2.314724,0.2955 -3.976274,0.62273 -1.777879,0.35014 -3.366812,0.78729 -3.366812,0.78729 0,0 1.475766,-0.91315 3.806274,-1.90254 2.317909,-0.98404 3.536812,-1.29608 3.536812,-1.29608 v -1.0435 c -1.183102,0.23384 -2.247134,0.48754 -3.302312,0.74268 1.109364,-0.91493 2.18274,-1.85632 3.302312,-2.65907 v -0.17 c 0,0 -0.638942,0.17981 -1.656581,0.5968 -0.798374,0.32715 -1.675268,0.78428 -1.675268,0.78428 1.104406,-0.77385 2.20648,-1.55519 3.331849,-2.25218 v -1.32743 c -0.48764,0.20978 -0.986515,0.41957 -1.447395,0.62935 0.516664,-0.42945 0.984882,-0.85881 1.447395,-1.25991 v -0.77765 c 0,0 -0.727879,0.42297 -1.31659,0.75294 -0.588687,0.32998 -1.942992,1.17703 -1.945325,1.18637 l 0.532903,-0.88979 c -0.968469,0.41722 -0.972307,0.49422 -2.008634,1.36421 -0.278711,0.23397 -0.580054,0.50074 -0.953677,0.83191 -1.084318,0.96112 -2.68403,2.72479 -2.647633,2.72479 0.393733,-0.91383 0.798327,-1.76667 1.26413,-2.50114 l -0.87049,0.51241 c -0.912603,1.10052 -1.259523,1.65251 -1.965227,2.93036 -0.694656,1.25784 -1.145107,2.18601 -1.692743,3.25106 0.293923,-1.16484 0.611924,-2.23231 0.935595,-3.36741 0,0 -1.039348,1.33951 -1.855512,2.95628 -0.576497,1.14201 -0.912918,1.86387 -1.365422,3.25167 -1.051609,3.22525 -1.166491,6.64628 -1.188772,9.19136 -0.01528,1.73477 0.04946,3.56932 0.10429,5.02158 0.09729,2.57843 0.424588,7.16504 0.426198,7.51609 -0.01633,4e-5 -0.03465,-8e-5 -0.05063,0 l -0.816841,-2.00018 c 0,0 0.189774,-2.30421 0.201347,-3.6399 0.0035,-0.33806 0.04526,-1.01336 0.04526,-1.01336 -0.194651,0.22509 -0.389814,0.44579 -0.573896,0.79754 0,0 0.1688,-0.64238 0.1688,-2.26241 0,-0.85731 -0.09951,-1.3817 -0.09951,-1.3817 -0.323239,0.389 -0.564038,0.67184 -0.838538,1.03145 0,0 0.57274,-1.31844 0.705914,-2.29076 0.220909,-1.61284 0.199573,-2.9055 -0.210388,-5.1964 0,0 -0.268072,0.85667 -0.867468,1.66261 -0.16488,0.22169 -0.46599,0.62874 -0.46599,0.62874 0,0 0.375699,-0.8672 0.531095,-1.69515 0.176393,-0.93988 0.234954,-1.55355 0.188677,-2.88273 -0.08971,-2.57577 -0.463575,-3.69898 -0.463575,-3.69898 0,0 -0.160622,1.94817 -0.543145,2.85079 -0.701912,1.65628 -1.818742,2.51139 -1.818742,2.51139 0,0 0.757125,-1.30219 1.153215,-3.05816 0.231443,-1.02607 0.704758,-3.54445 0.16096,-6.25799 -0.121636,-0.60691 -0.328442,-1.2188 -0.749927,-2.11894 0,0 -0.06416,1.27837 -0.979598,3.44216 -0.244439,0.57774 -1.05435,2.01647 -1.05435,2.01647 0,0 0.414778,-2.08993 0.620919,-3.40177 0.130467,-0.83026 0.227535,-1.53287 0.288149,-2.21119 0.116538,-1.30397 0.145585,-1.78784 -0.125987,-2.82607 l -1.309358,1.9369 c 0,0 0.407499,-1.25124 0.748714,-2.07134 0.191163,-0.45944 0.327346,-0.93799 0.327346,-0.93799 l -0.256209,-0.56547 c 0,0 -0.871471,0.70619 -1.595092,2.02432 -0.72647,1.32331 -0.89098,2.32511 -0.89098,2.32511 0,0 -0.14537,-1.46272 -0.11035,-2.24614 0.13168,-2.9431 0.97055,-4.29698 0.97055,-4.29698 l -0.35808,-0.4901 c -0.63072,0.5998 -0.92165,0.77357 -1.64393,2.1503 -0.57321,1.09263 -0.84998,2.4927 -0.84998,2.4927 0,0 -0.49158,-0.91231 -0.71858,-2.24253 -0.25591,-1.49958 -0.0446,-2.68501 -0.0446,-2.68501 z m -97.28423,11.52191 c 0,0 -1.60945,0.96649 -2.35345,1.44077 -0.84758,0.54031 -1.48658,1.23579 -1.48658,1.23579 l 0.90123,0.22003 c 1.19123,-0.46713 2.29621,-0.99595 3.44458,-1.42568 -0.46848,0.54928 -0.82605,0.95866 -1.46066,1.71987 0.26697,0.0643 0.47004,0.14139 0.67336,0.22486 0.66501,-0.19977 1.10442,-0.41897 1.66623,-0.65407 -0.29628,0.45432 -0.60592,0.86427 -0.87893,1.39615 0,0 2.86535,-1.10232 4.56463,-1.75484 1.65076,-0.63389 3.33245,-1.16829 3.33245,-1.16829 0,0 -1.22908,1.07096 -2.34923,1.71023 -1.19589,0.68249 -1.77464,0.88006 -2.59338,1.35275 -1.08059,0.62389 -1.67225,1.11344 -1.67225,1.11344 l 0.20436,0.12779 c 0,0 2.41675,-0.65571 4.74609,-0.99587 0.86541,-0.12638 2.60242,-0.30624 2.60242,-0.30624 -1.25235,0.80865 -3.40971,1.95997 -3.45724,2.33477 l 1.2569,0.53531 c 1.06234,-0.28487 2.05719,-0.56885 3.21791,-0.81684 0.54979,0.0228 1.10052,0.0477 1.62222,0.0283 -1.02152,0.2527 -2.00497,0.57667 -2.46136,1.06278 0.49219,0.34606 0.57495,0.3634 2.02431,0.24898 0.97271,-0.0768 1.25458,-0.12138 2.08881,-0.13202 0.926,-0.0118 1.18977,0.10254 1.72892,0.23812 -1.0963,0.61378 -1.74838,1.16872 -1.74038,1.74338 0,0 0.72084,-0.27529 1.81573,-0.49853 1.28824,-0.26266 2.00658,-0.34657 2.08881,-0.36713 0,0 -0.75591,0.64581 -1.74098,0.86566 -0.58192,0.12987 -1.38229,0.24535 -1.38229,0.24535 0,0 1.22427,0.82008 2.91589,0.91269 1.75031,0.0958 3.41805,-0.6167 3.41805,-0.6167 0,0 -0.69405,0.47659 -2.13582,1.17613 -0.61369,0.29776 -2.00984,0.67938 -2.00984,0.67938 0,0 0.6252,0.56908 2.48245,0.56908 1.37887,0 3.50426,-0.36652 3.50426,-0.36652 0,0 -0.63092,0.53202 -1.54988,0.77825 -0.61066,0.16363 -1.28595,0.22635 -1.88806,0.25802 -0.66441,0.0349 -0.93199,0.13637 -0.96152,0.55761 l -0.004,-0.001 c 0,0 -5.77729,-3.84437 -13.18571,-6.7933 -4.56627,-1.8176 -8.02472,-3.04186 -12.02648,-3.80567 0.25308,-0.19538 0.55391,-0.41509 0.89882,-0.62634 1.27498,-0.78085 2.16253,-1.10172 3.6182,-1.71866 0.87741,-0.37189 2.52103,-0.72763 2.52103,-0.72763 z m 45.2093,12.28027 c 0.10289,-0.001 0.14121,0.003 0.22123,0.005 -0.78646,0.20535 -1.57427,0.41935 -2.35043,0.68783 -0.23353,0.0807 -0.63783,0.25473 -1.08872,0.45514 -0.793,-0.13818 -1.6148,-0.26776 -2.44206,-0.34904 0,0 1.32189,-0.30343 2.97557,-0.54556 1.28738,-0.1885 2.14691,-0.24404 2.68441,-0.25259 z m 72.843053,0.0495 c -0.172953,0.22715 -0.339209,0.45303 -0.49191,0.67336 -0.495935,0.71559 -0.894335,1.2905 -1.24003,1.79403 -1.308249,0.15927 -2.150521,0.334 -3.266733,0.53711 0,0 2.183698,-1.58928 3.438542,-2.26422 0.43293,-0.23286 1.06093,-0.51836 1.560131,-0.74028 z m -19.807963,1.84806 c 0.49871,0.50291 1.02371,1.09802 1.88399,1.5947 0.62981,0.36363 1.89111,0.71253 2.443883,0.85542 l -1.921223,0.31589 c -0.72824,-0.84005 -1.69697,-1.9294 -2.40665,-2.76601 z m -58.59983,0.35649 c -0.1691,0.0831 -0.36935,0.17391 -0.52265,0.25078 -0.17221,0.0863 -0.38388,0.19851 -0.56967,0.29358 -0.64174,-0.002 -1.30023,-0.009 -2.0442,-0.0187 1.06075,-0.19985 2.08577,-0.35396 3.13652,-0.52567 z m 75.981395,1.28885 c -0.323087,0.4828 -0.618469,0.93721 -0.892188,1.37687 -0.758094,0.14533 -1.516385,0.29972 -2.274479,0.46298 0,0 0.975014,-0.6708 1.594486,-1.02843 0.570186,-0.3292 1.110426,-0.59549 1.572181,-0.81142 z m -65.239555,0.7867 c 0,0 1.21829,0.35349 2.37818,1.35757 1.47486,1.27676 1.76636,1.8415 2.65064,2.6404 1.05792,0.95574 2.06354,2.17549 2.65909,3.01596 -0.82347,-0.39655 -1.77695,-0.80242 -2.79594,-1.11764 -0.23016,-0.0712 -0.45831,-0.13728 -0.68601,-0.19954 -0.27801,-0.77858 -0.64286,-1.51035 -1.4685,-2.65969 -1.29302,-1.79998 -2.07486,-2.41801 -2.73746,-3.03706 z m -5.03966,0.81081 c 0,0 1.1601,0.51906 1.73253,0.84939 1.03815,0.66678 1.859,1.58446 2.69888,2.47642 0.3701,0.37868 0.71569,0.67836 1.02662,0.92354 -0.39617,-0.0281 -0.80076,-0.0498 -1.22495,-0.059 -0.0902,-0.002 -0.17728,5.9e-4 -0.26645,0 -0.19455,-0.26375 -0.38226,-0.51264 -0.51121,-0.66612 -0.41248,-0.49102 -1.03714,-1.18654 -1.68913,-1.75423 -1.32073,-1.14997 -1.76629,-1.76991 -1.76629,-1.76991 z m 68.723914,0.87531 c -0.06894,0.11642 -0.125276,0.20656 -0.198932,0.33215 -0.186962,0.31877 -0.365526,0.64265 -0.540742,0.96815 -0.492703,0.10686 -0.945184,0.20124 -1.485984,0.32311 0,0 0.604552,-0.51229 0.90425,-0.73665 0.369831,-0.27687 0.904262,-0.62207 1.321408,-0.88676 z m -74.506264,0.69145 c 0,0 1.28575,0.96911 2.02973,1.39193 0.7109,0.40399 1.03599,0.51655 2.44146,1.14417 0.46302,0.20673 0.88032,0.35341 1.25028,0.46298 -0.47571,0.0815 -0.95065,0.17021 -1.42992,0.26102 -0.19835,0.0376 -0.38507,0.0663 -0.57148,0.0946 -1.43041,-1.16807 -2.52296,-2.25361 -3.72007,-3.35475 z m 4.99626,0.4702 c 0,0 1.41703,0.64065 2.33115,1.32441 0.4452,0.33302 0.78827,0.59085 1.1303,0.86446 -0.48097,0.0309 -0.95151,0.079 -1.41605,0.13927 -0.0967,-0.16478 -0.21252,-0.35188 -0.37314,-0.57631 -0.78897,-1.10238 -1.67226,-1.75183 -1.67226,-1.75183 z m 5.91497,0.18929 c 0,0 0.24649,0.25909 0.45815,0.45996 0.21166,0.20087 0.58024,0.46613 0.81262,0.74449 0.3377,0.40453 0.54502,0.74582 0.68422,0.99648 -0.22,-0.0335 -0.4421,-0.064 -0.66734,-0.0904 -0.42468,-0.95539 -0.70946,-1.31243 -1.28765,-2.11051 z m 52.789888,0.20316 c 0.17868,0.22095 0.586004,0.62936 1.05617,0.92233 l -0.293585,0.004 z m -85.560968,0.34301 c 0,0 -1.2765,2.41459 -1.9598,3.68027 -0.42672,0.79041 -0.89138,1.64481 -1.27077,2.3432 -0.70964,0.0423 -1.43361,0.0948 -2.19732,0.16519 1.23405,-1.3653 2.2668,-2.41236 3.94613,-4.41574 0.79999,-0.95437 1.48176,-1.77292 1.48176,-1.77292 z m -4.22223,0.24173 c -0.32964,1.53122 -0.5015,1.8805 -1.46367,3.86776 -0.30978,0.63981 -0.85439,1.55864 -1.26112,2.23229 -0.50765,0.0553 -1.03496,0.11654 -1.58665,0.18386 0.78906,-1.04224 1.6203,-2.16231 2.40107,-3.30653 0.69397,-1.01702 1.36151,-2.03385 1.91037,-2.97738 z m 22.45665,0.0162 c 0,0 0.66251,0.43863 1.00432,0.70652 0.34535,0.27066 0.60442,0.48691 1.0212,0.82708 -0.22665,-0.0608 -0.4747,-0.11692 -0.79152,-0.15975 -0.37462,-0.0506 -0.7957,-0.79313 -1.234,-1.37385 z m 76.797629,0.29478 c -0.148409,0.29883 -0.294775,0.59872 -0.437654,0.90003 -0.500543,1.05552 -1.303035,3.02014 -1.405808,3.27216 -0.218693,-0.0275 -0.43111,-0.0511 -0.613675,-0.0639 -0.09402,-0.007 -0.183638,-0.0105 -0.27429,-0.0151 0.06089,-0.85216 0.08574,-1.60742 0.110355,-2.35948 0,0 0.828086,-0.65292 1.264737,-0.94704 0.479312,-0.32287 0.948591,-0.57891 1.35637,-0.7867 z m 2.949653,0.49372 c 1.248172,0.52403 2.676669,1.05228 3.982294,1.47633 -0.503202,0.18107 -1.014664,0.37157 -1.522148,0.57751 -0.187604,0.0762 -0.362901,0.14953 -0.53772,0.22245 -0.594112,-0.72463 -1.23821,-1.48798 -1.922426,-2.27629 z m -95.174322,0.19833 c -0.73883,1.58698 -1.36903,2.86694 -2.18646,4.67254 -0.69957,-0.002 -1.38399,0.006 -2.06169,0.0253 0.4612,-0.51362 1.36556,-1.58522 2.07073,-2.36973 0.92387,-1.02781 1.4288,-1.58073 2.17742,-2.32814 z m 93.468303,1.2575 c 0.720157,0.47561 1.568226,0.98733 2.156937,1.46066 -1.593517,0.7271 -2.420927,1.22729 -2.785089,1.47211 -0.156947,-0.23816 -0.350524,-0.40013 -0.612473,-0.41715 0,0 -0.326832,-0.0603 -0.743289,-0.12961 0.515136,-0.82485 1.112852,-1.68972 1.983914,-2.38601 z m -7.763848,0.74873 c 0.191477,0.0841 0.397886,0.15633 0.62212,0.21339 l 0.802364,1.20567 c -0.211635,0.0163 -0.299418,0.0625 -0.535317,0.19049 z m -96.819445,0.0754 -1.43233,3.35294 c -0.2384,0.0308 -0.45919,0.0576 -0.70712,0.0904 -0.32822,0.0435 -0.64759,0.0894 -0.96875,0.13444 1.1405,-1.01167 2.12793,-2.30938 3.1082,-3.57781 z m 83.37028,2.10569 c -0.45359,0.98951 -0.91745,2.05546 -1.37746,3.195 -0.73803,0.1623 -1.3445,0.31806 -1.86757,0.46116 1.12297,-1.34761 2.2192,-2.74033 3.24503,-3.65616 z m 12.270017,0.26222 c 0.161766,0.0716 0.359612,0.18312 0.56727,0.31348 -0.154206,0.27219 -0.204905,0.54429 -0.241733,0.99105 -0.02263,0.27456 -0.04305,0.5881 -0.06264,0.90907 -0.208463,-0.0117 -0.937357,-0.0457 -2.101468,-0.0832 l 0.164577,-0.006 c 0.550378,-0.67671 1.217807,-1.42014 1.674056,-2.12438 z m -74.734127,0.007 c 0.1371,0.48369 0.26131,0.99014 0.37255,1.49924 -0.41715,-0.44231 -0.70689,-0.74105 -0.73485,-0.75292 0.15681,-0.28453 0.27758,-0.53312 0.3623,-0.74632 z m 65.57473,0.36713 c -0.31385,0.55528 -0.6731,1.32495 -1.07727,1.96222 -0.21934,0.0282 -0.43059,0.06 -0.64322,0.091 0.64483,-0.83168 1.19883,-1.47578 1.72049,-2.05325 z m 4.15168,0.18146 c -0.23664,0.5049 -0.48785,1.00561 -0.64381,1.50586 -0.14551,-5.2e-4 -0.28345,-0.002 -0.43163,-0.002 -0.0484,0 -0.0958,0.002 -0.14408,0.002 0.37114,-0.53094 0.88856,-1.06281 1.21952,-1.50586 z m 2.257007,0.48587 c -0.140499,0.32411 -0.329457,0.74289 -0.435847,1.05255 -0.22213,-0.005 -0.42321,-0.0105 -0.6595,-0.0145 0.27575,-0.30426 0.69298,-0.72147 1.095347,-1.03808 z m 13.822902,0.0175 c 0.625025,0.48952 1.217189,1.02945 1.817542,1.57399 -1.780539,-0.21906 -3.055506,-0.26861 -3.674862,-0.28273 -0.06544,-0.29861 -0.136218,-0.5833 -0.211589,-0.83974 0.607714,-0.20827 1.227303,-0.3773 2.068909,-0.45152 z m -18.975299,0.52808 c -0.0983,0.16957 -0.20245,0.3548 -0.30081,0.54797 -0.0771,0.006 -0.15181,0.0128 -0.22847,0.0187 0.18226,-0.24119 0.36073,-0.40839 0.52928,-0.56667 z m 23.245754,0.98382 c 0.131517,0.19633 0.263862,0.37099 0.402098,0.52928 -0.04106,-0.008 -0.08201,-0.017 -0.122978,-0.0253 -0.101256,-0.17651 -0.196552,-0.34834 -0.27912,-0.50397 z m -101.578784,0.55762 c 0.0853,0.10254 0.13426,0.16873 0.17663,0.24415 0.004,0.57979 0.20238,1.13796 0.38701,1.74519 l 0.45454,1.02601 c -0.0519,0.29495 -0.14045,0.51339 -0.22305,0.75052 0.0216,0.10943 0.0472,0.18642 0.12961,0.25682 -0.16142,0.37487 -0.57477,1.26275 -1.06038,2.3004 0.0207,-1.86769 0.0312,-3.75836 -0.1079,-5.86433 0.0868,-0.11444 0.19807,-0.34151 0.24354,-0.45876 z m 86.368762,1.81331 0.243552,0.24716 c -0.172906,0.26526 -0.377787,0.61154 -0.608868,1.02482 0.01435,-0.5239 0.02531,-1.06099 0.02531,-1.06099 z m -88.549802,1.07123 c 0.45394,1.67879 0.79785,3.48689 1.16708,5.31576 -0.28361,0.60695 -0.55665,1.20117 -0.84155,1.81754 0.0486,-0.6849 0.0934,-1.43232 0.0934,-1.95197 0,-2.30151 -0.41897,-5.18133 -0.41897,-5.18133 z m 86.765426,0.67517 c 0,0 0.150053,1.06485 0.239924,1.77052 -0.168111,0.33117 -0.320766,0.62159 -0.494313,0.97176 0.08609,-0.90337 0.172392,-1.8108 0.254389,-2.74228 z m 11.632824,4.16918 c 0.0035,0.66961 0.134561,1.5228 0.449109,4.05102 0.04211,0.33864 0.107906,0.8106 0.159747,1.20506 -0.3098,-0.95417 -0.511531,-1.53495 -0.502152,-1.39736 0,0 0.02298,-1.03446 0,-1.35095 -0.07116,-0.97857 -0.160506,-1.09762 -0.244147,-1.75604 -0.01971,-0.15475 -0.05623,-0.39614 -0.08014,-0.5751 z m -8.78445,2.81281 c 0.615751,0.45742 1.000164,1.58238 1.529987,3.05515 0.625153,1.73773 1.318386,4.68339 1.318386,4.68339 0,0 -2.051527,-3.0534 -2.664514,-5.69494 -0.291333,-1.25559 -0.183859,-2.0436 -0.183859,-2.0436 z m -7.28339,17.81847 0.15251,0.21401 c -0.42082,1.51268 -1.09547,3.05578 -1.86637,4.69665 0.25261,-1.48563 0.63286,-3.66336 1.71386,-4.91066 z" /></g><g
       id="g59"
       transform="matrix(1.9023412,0,0,1.9023412,-307.41771,-36.434375)"
       style="opacity:1;stroke-width:0.976709"><path
         id="path50"
         style="color:#000000;fill:url(#radialGradient58);stroke:none;stroke-width:0.976709;-inkscape-stroke:none;paint-order:stroke fill markers"
         d="m 137.89236,123.69323 v 4.76766 l -2.72123,-0.005 c -1.40633,-0.003 -2.54519,0.73596 -3.35974,1.71737 -0.78284,-0.96331 -1.91476,-1.73115 -3.457,-1.72996 l -22.72621,0.0176 c -1.39064,0.001 -2.51402,0.73486 -3.31192,1.71236 -0.84375,-1.01219 -2.01704,-1.71236 -3.311455,-1.71236 H 76.558634 c -2.507196,0 -5.003827,2.03003 -5.003828,5.00383 v 24.0838 h 12.292789 c 0.469372,0 0.892021,-0.14444 1.320333,-0.26923 v 5.826 h 1.12913 v 7.06055 c 5.5e-5,0.95713 0.334417,1.8027 0.80822,2.5585 -2.773799,0.12043 -4.786788,2.36288 -4.786788,4.96094 v 13.43174 c 0,2.9298 2.458581,4.932 4.931482,4.932 h 22.128878 c 1.77493,0 3.19079,-1.04112 4.05299,-2.42001 0.87202,1.39192 2.30686,2.42001 4.06021,2.42001 h 7.61142 c 1.43888,0 2.6045,-0.75246 3.44321,-1.75235 0.84639,1.00636 2.01986,1.75235 3.44371,1.75235 h 7.51944 c 2.7925,0 5.00176,-2.32041 5.00176,-5.00228 v -13.36146 c 0,-2.58426 -1.89984,-4.51622 -4.06435,-4.85914 v -6.02909 h 5.5702 v 3.36879 c 0,2.74241 2.26139,5.00383 5.00383,5.00383 h 7.28948 c 2.79272,0 5.00383,-2.32179 5.00383,-5.00383 v -15.8085 h -7.37319 v -2.25412 h -20.93493 c -1.32298,0 -2.41247,0.70113 -3.18873,1.64553 -0.81282,-0.95897 -1.93314,-1.6245 -3.1692,-1.62461 l -8.35524,-7.1e-4 c -1.25643,-1.1e-4 -2.44251,0.60548 -3.20674,1.62532 -0.76855,-0.94453 -1.85178,-1.6552 -3.19414,-1.6552 h -2.92967 v -0.5917 h 36.85356 v -27.80863 z m -41.971083,30.99965 c 0.01931,0.0124 0.03763,0.0262 0.05684,0.0388 l -0.07855,0.0362 h -0.0026 z" /><path
         style="color:#000000;fill:#1d0030;fill-opacity:1;stroke-width:0.976709;-inkscape-stroke:none;paint-order:stroke fill markers"
         d="m 138.30267,124.10354 v 4.76766 l -2.90109,-0.004 c -1.52411,-0.002 -2.78689,0.8228 -3.58815,1.97285 -0.75777,-1.11648 -1.99369,-1.98769 -3.69046,-1.98639 l -22.25565,0.017 c -1.51204,0.001 -2.76317,0.82389 -3.54713,1.97249 -0.82978,-1.19922 -2.16418,-1.97249 -3.554522,-1.97249 H 76.558634 c -2.28605,0 -4.594034,1.84962 -4.594034,4.59352 v 23.67401 h 11.882995 c 0.611969,0 1.194291,-0.1315 1.730644,-0.35347 v 5.91024 h 1.128613 v 7.47034 c 6.4e-5,1.12196 0.406324,2.12397 1.086627,2.92592 h -0.473228 c -2.674804,0 -4.591967,2.13773 -4.591967,4.59404 v 13.43122 c 0,2.70002 2.269905,4.52168 4.521688,4.52168 h 22.129438 c 1.81509,0 3.32394,-1.10383 4.05044,-2.61178 0.73207,1.52726 2.27035,2.61178 4.06217,2.61178 h 7.61139 c 1.46025,0 2.67212,-0.78552 3.44281,-1.88525 0.778,1.10853 2.00176,1.88525 3.44424,1.88525 h 7.51937 c 2.56492,0 4.59197,-2.13565 4.59197,-4.59196 v -13.3604 c 0,-2.52884 -1.96815,-4.42121 -4.06487,-4.55348 v -6.74558 h 6.39082 v 3.7791 c 0,2.51689 2.07664,4.59404 4.59352,4.59404 h 7.28948 c 2.56492,0 4.59352,-2.13773 4.59352,-4.59404 v -15.39803 h -7.37319 v -2.25412 H 135.3512 c -1.48681,0 -2.74676,0.80951 -3.53777,1.96013 -0.83122,-1.17723 -2.15124,-1.9359 -3.52646,-1.93604 l -7.65135,-7.7e-4 c -1.43119,-1.4e-4 -2.84628,0.67195 -3.55352,1.93682 -0.77853,-1.14702 -2.02422,-1.9701 -3.5315,-1.9701 h -2.99766 v -1.41232 h 36.85357 V 124.1034 Z"
         id="path51" /><path
         style="color:#000000;fill:#ffffff;fill-opacity:1;stroke-width:0.976709;-inkscape-stroke:none;paint-order:stroke fill markers"
         d="m 139.90361,125.70344 v 4.76767 h -4.37855 c -1.75239,0 -2.9931,1.33488 -2.9931,2.99309 v 13.03383 c 0,1.855 1.54587,2.9931 2.9931,2.9931 h 10.28206 v -23.78769 z m -11.87783,4.75371 c -3.19509,0 -4.331,1.21853 -4.331,1.21853 v -1.20457 h -5.90352 v 19.02002 h 5.90352 v -14.31902 h 1.46709 v 14.31902 h 5.90351 v -16.21658 c 0,-1.22434 -1.01612,-2.8174 -3.0396,-2.8174 z m -51.467146,0.014 c -1.447229,0 -2.993099,1.1381 -2.993099,2.99309 v 13.03383 c 0,1.65822 1.240712,2.9931 2.993099,2.9931 h 4.378545 v 1.28881 h -7.371644 v 4.75889 h 10.28206 c 1.658211,0 2.993099,-1.33488 2.993099,-2.9931 v -22.07462 z m 11.748637,0 v 22.09942 h 5.903516 V 142.3066 h 1.468127 v 8.81445 c 0,1.65822 1.334891,2.9931 2.993099,2.9931 h 4.378027 v 19.04584 l 5.903,-4e-5 V 158.8616 h 1.46813 v 14.29835 h 5.90351 v -16.06362 c 0,-1.6582 -1.24071,-2.99309 -2.9931,-2.99309 h -4.37802 v -3.31505 h -7.37061 l -5.2e-4,-8.44703 c -6e-5,-1.00627 -0.4919,-1.89289 -1.24902,-2.43499 0.77479,-0.47505 1.24902,-1.29096 1.24902,-2.31511 v -4.12688 c 0,-1.85499 -1.54587,-2.99309 -2.993099,-2.99309 z m 17.735349,0 c -1.75239,0 -2.9931,1.3349 -2.9931,2.99309 v 2.91921 h 5.90352 v -1.15394 h 1.46813 v 2.35386 h -4.37855 c -1.65821,0 -2.9931,1.33488 -2.9931,2.9931 v 5.9216 c 0,1.855 1.54587,2.9931 2.9931,2.9931 h 10.28206 V 133.4642 c 0,-1.65819 -1.33489,-2.99309 -2.9931,-2.99309 z m -26.573569,4.72684 h 1.468128 v 9.53482 h -1.468128 z m 14.741736,0 h 1.468127 v 2.35024 h -1.468127 z m 44.224693,0.0315 h 1.46813 v 9.53482 h -1.46813 z m -29.48244,7.11223 h 1.46813 v 2.42259 h -1.46813 z m -20.645769,11.77241 v 2.25361 h -1.129646 v 4.72684 h 1.129646 l 5.17e-4,9.07231 c 9.4e-5,1.65821 1.334891,2.9931 2.993099,2.9931 h 7.288961 c 1.752382,0 2.993102,-1.33489 2.993102,-2.9931 v -7.82846 h -5.903519 v 6.0632 h -1.468127 v -7.30705 h 7.371646 v -4.72684 h -7.371646 v -2.25361 z m 47.219339,0 c -1.65821,0 -2.99308,1.33489 -2.9931,2.9931 v 16.05276 h 5.90352 v -8.37261 h 7.37164 v -4.72685 h -7.37164 v -1.18804 h 7.37164 v -4.75836 z m 12.50156,0 v 2.25361 h -1.13016 v 4.72684 h 1.13016 v 9.07231 c 0,1.65821 1.33489,2.9931 2.9931,2.9931 h 7.28896 c 1.75239,0 2.9931,-1.33489 2.9931,-2.9931 v -7.82846 h -5.90351 v 6.0632 h -1.46813 v -7.30705 h 7.37164 v -4.72684 h -7.37164 v -2.25361 z m -27.2159,0.0258 c -1.96035,0 -2.9931,1.58214 -2.9931,2.99309 v 13.16333 c 0,1.58646 1.27713,2.8636 2.8636,2.8636 h 7.41846 c 1.75239,0 2.9931,-1.33489 2.9931,-2.9931 v -2.9192 h -5.90352 v 1.15394 h -1.46812 v -2.35386 h 7.37164 v -8.91471 c 0,-1.85499 -1.54587,-2.99309 -2.9931,-2.99309 z m 2.91042,4.72684 h 1.46812 v 2.42259 h -1.46812 z m -36.401922,15.82487 c -1.752388,0 -2.993099,1.3349 -2.993099,2.9931 v 3.01325 h 5.903516 v -1.18184 h 1.468127 v 2.43758 h -4.44934 c -1.658209,0 -2.922303,1.33488 -2.922303,2.9931 v 6.17017 c 0,1.81121 1.509227,2.9223 2.922303,2.9223 h 10.300663 v -16.35456 c 0,-1.6582 -1.282698,-2.9931 -2.940906,-2.9931 z m 11.718665,0 v 16.35456 c 0,1.65821 1.334887,2.9931 2.993097,2.9931 h 7.28896 c 1.75239,0 2.9931,-1.33489 2.9931,-2.9931 v -16.35456 h -5.90351 v 14.52315 h -1.46813 v -14.52315 z m 15.515327,0 v 1.26452 h -1.13016 v 4.72685 h 1.13016 v 10.36319 c 0,1.65821 1.3349,2.9931 2.9931,2.9931 h 7.28896 c 1.75239,0 2.9931,-1.33489 2.9931,-2.9931 v -9.09505 h -5.90351 v 7.26364 h -1.46813 v -8.53178 h 7.37164 v -4.72685 h -7.37164 v -1.26452 z m 17.66559,0 c -1.96034,0 -2.9931,1.58214 -2.9931,2.9931 v 13.36146 c 0,1.65821 1.33489,2.9931 2.9931,2.9931 h 7.28896 c 1.75239,0 2.9931,-1.33489 2.9931,-2.9931 v -13.36146 c 0,-1.855 -1.54587,-2.9931 -2.9931,-2.9931 z m 2.91042,4.82451 h 1.46813 v 9.69864 h -1.46813 z m -44.899585,7.27605 h 1.468127 v 2.42259 h -1.468127 z"
         id="path49" /></g></g></svg>
